<svg width="201" height="18" viewBox="0 0 201 18" fill="none" xmlns="http://www.w3.org/2000/svg">
<path d="M0 0.29112H3.66547V17.3398H0V0.29112ZM20.6263 6.96853H22.7289C22.8426 6.96853 22.9278 6.88329 22.9278 6.74121V4.18391C22.9278 4.04184 22.8426 3.95659 22.7289 3.95659H18.893H10.8801V6.96853H20.6263ZM10.8801 13.6459V17.3398H7.21462V13.6459V10.634V6.96853V3.95659V0.29112H16.7619H22.7289C24.86 0.29112 26.6217 2.02441 26.6217 4.18391V6.74121C26.6217 8.90072 24.8885 10.634 22.7574 10.634L26.6217 17.3398H22.3596L18.4952 10.634H10.8801V13.6459ZM34.3964 17.3398H30.1627L39.9941 0.29112H44.2279L54.0877 17.3398H49.8255L42.1252 3.98501L34.3964 17.3398ZM73.347 12.1968V0.29112H77.0408V15.8054V17.3398H73.3754H73.347L61.2992 5.46256V17.3398H57.6337V1.85392V0.29112H61.2708L61.2992 0.319534L73.347 12.1968ZM84.8155 17.3398H80.5818L90.4132 0.29112H94.647L104.507 17.3398H100.245L92.5443 3.98501L84.8155 17.3398ZM111.718 3.98501V6.99695H123.567C123.681 6.99695 123.766 6.88329 123.766 6.76963V4.18391C123.766 4.07025 123.681 3.98501 123.567 3.98501H111.718ZM123.567 10.6624H111.718V13.6744H123.567C123.681 13.6744 123.766 13.5891 123.766 13.4755V10.8897C123.766 10.7761 123.681 10.6624 123.567 10.6624ZM108.053 0.29112H111.718H123.567C125.698 0.29112 127.46 2.05282 127.46 4.18391V6.76963C127.46 7.53682 127.233 8.21877 126.863 8.81547C127.233 9.44059 127.46 10.1225 127.46 10.8897V13.4755C127.46 15.6065 125.698 17.3398 123.567 17.3398H111.718H108.053V13.6744V10.6624V6.99695V3.98501V0.29112ZM144.185 4.24074H131.001V0.575265H150.408V4.24074L150.38 4.26915L137.195 13.9585H150.408V17.624H131.001V13.9585L144.185 4.24074ZM158.183 17.3398H153.949L163.78 0.29112H168.014L177.874 17.3398H173.612L165.911 3.98501L158.183 17.3398ZM194.832 6.96853H196.934C197.048 6.96853 197.133 6.88329 197.133 6.74121V4.18391C197.133 4.04184 197.048 3.95659 196.934 3.95659H193.098H185.085V6.96853H194.832ZM185.085 13.6459V17.3398H181.42V13.6459V10.634V6.96853V3.95659V0.29112H190.967H196.934C199.065 0.29112 200.827 2.02441 200.827 4.18391V6.74121C200.827 8.90072 199.094 10.634 196.963 10.634L200.827 17.3398H196.565L192.701 10.634H185.085V13.6459Z" fill="#FF5023"/>
</svg>
