<svg width="22" height="22" viewBox="0 0 22 22" fill="none" xmlns="http://www.w3.org/2000/svg">
<path d="M1.51726 11.0741C1.51726 13.1591 1.63009 14.7765 1.91041 16.0378C2.18858 17.2895 2.62022 18.1377 3.22212 18.7396C3.82402 19.3415 4.67222 19.7731 5.92387 20.0513C7.18519 20.3316 8.80257 20.4444 10.8876 20.4444C12.9727 20.4444 14.5901 20.3316 15.8514 20.0513C17.103 19.7731 17.9512 19.3415 18.5531 18.7396C19.155 18.1377 19.5867 17.2895 19.8648 16.0378C20.1452 14.7765 20.258 13.1591 20.258 11.0741C20.258 8.98902 20.1452 7.37164 19.8648 6.11032C19.5867 4.85867 19.155 4.01046 18.5531 3.40856C17.9512 2.80666 17.103 2.37502 15.8514 2.09686C14.5901 1.81654 12.9727 1.7037 10.8876 1.7037C8.80257 1.7037 7.18519 1.81654 5.92387 2.09686C4.67222 2.37502 3.82402 2.80666 3.22212 3.40856C2.62022 4.01046 2.18858 4.85867 1.91041 6.11032C1.63009 7.37164 1.51726 8.98902 1.51726 11.0741Z" stroke="#212135" stroke-width="1.7037" stroke-linecap="round" stroke-linejoin="round"/>
<path d="M9.1839 6.81482H12.5913" stroke="#212135" stroke-width="1.7037" stroke-linecap="round" stroke-linejoin="round"/>
<path d="M6.62836 11.0741H15.1469" stroke="#212135" stroke-width="1.7037" stroke-linecap="round" stroke-linejoin="round"/>
<path d="M9.1839 15.3333L12.5913 15.3333" stroke="#212135" stroke-width="1.7037" stroke-linecap="round" stroke-linejoin="round"/>
</svg>
