<svg width="30" height="30" viewBox="0 0 30 30" fill="none" xmlns="http://www.w3.org/2000/svg">
<path d="M0.851852 15C0.851852 18.0687 1.01739 20.4765 1.43824 22.3702C1.85695 24.2541 2.51695 25.5766 3.47016 26.5298C4.42338 27.4831 5.74585 28.1431 7.62985 28.5618C9.52352 28.9826 11.9313 29.1481 15 29.1481C18.0687 29.1481 20.4765 28.9826 22.3702 28.5618C24.2541 28.1431 25.5766 27.4831 26.5298 26.5298C27.4831 25.5766 28.1431 24.2541 28.5618 22.3702C28.9826 20.4765 29.1481 18.0687 29.1481 15C29.1481 11.9313 28.9826 9.52352 28.5618 7.62985C28.1431 5.74585 27.4831 4.42338 26.5298 3.47016C25.5766 2.51695 24.2541 1.85695 22.3702 1.43824C20.4765 1.01739 18.0687 0.851852 15 0.851852C11.9313 0.851852 9.52352 1.01739 7.62985 1.43824C5.74585 1.85695 4.42338 2.51695 3.47016 3.47016C2.51695 4.42338 1.85695 5.74585 1.43824 7.62985C1.01739 9.52352 0.851852 11.9313 0.851852 15Z" stroke="#FF5023" stroke-width="1.7037" stroke-linecap="round" stroke-linejoin="round"/>
<path d="M12.5 8.75H17.5" stroke="#FF5023" stroke-width="1.7037" stroke-linecap="round" stroke-linejoin="round"/>
<path d="M8.75 15H21.25" stroke="#FF5023" stroke-width="1.7037" stroke-linecap="round" stroke-linejoin="round"/>
<path d="M12.5 21.25L17.5 21.25" stroke="#FF5023" stroke-width="1.7037" stroke-linecap="round" stroke-linejoin="round"/>
</svg>
