<svg width="20" height="18" viewBox="0 0 20 18" fill="none" xmlns="http://www.w3.org/2000/svg">
<path d="M11.7108 0.441209L19.2408 7.93721C19.8068 8.50121 19.8068 9.49921 19.2408 10.0652L11.7108 17.5612C11.1228 18.1452 10.1728 18.1432 9.5888 17.5552C9.0048 16.9672 9.0048 16.0192 9.5928 15.4332L14.5468 10.4992L1.8368 10.4992C1.0068 10.4992 0.3368 9.82721 0.3368 8.99921C0.3368 8.17121 1.0068 7.49921 1.8368 7.49921L14.5468 7.49921L9.5928 2.56721C9.2988 2.27321 9.1528 1.88921 9.1528 1.50321C9.1528 1.12121 9.2988 0.737208 9.5888 0.445208C10.1728 -0.140792 11.1228 -0.142791 11.7108 0.441209Z" fill="#FF5023"/>
</svg>
