<svg width="20" height="18" viewBox="0 0 20 18" fill="none" xmlns="http://www.w3.org/2000/svg">
<path d="M8.2892 0.441209L0.759199 7.93721C0.193199 8.50121 0.193199 9.49921 0.759199 10.0652L8.2892 17.5612C8.8772 18.1452 9.8272 18.1432 10.4112 17.5552C10.9952 16.9672 10.9952 16.0192 10.4072 15.4332L5.4532 10.4992L18.1632 10.4992C18.9932 10.4992 19.6632 9.82721 19.6632 8.99921C19.6632 8.17121 18.9932 7.49921 18.1632 7.49921L5.4532 7.49921L10.4072 2.56721C10.7012 2.27321 10.8472 1.88921 10.8472 1.50321C10.8472 1.12121 10.7012 0.737208 10.4112 0.445208C9.8272 -0.140792 8.8772 -0.142791 8.2892 0.441209Z" fill="#FF5023"/>
</svg>
