<svg width="57" height="51" viewBox="0 0 57 51" fill="none" xmlns="http://www.w3.org/2000/svg">
<g clip-path="url(#clip0_11237_979)">
<path d="M19.1364 37.6368L20.7595 39.983C21.4394 40.9622 21.0885 42.2517 19.9809 42.8528L8.21365 49.2321C7.10601 49.8332 5.64745 49.523 4.96752 48.5438L3.34445 46.1976C2.66452 45.2184 3.01545 43.9289 4.12308 43.3278L15.8903 36.9485C16.9979 36.3474 18.4565 36.6576 19.1364 37.6368Z" fill="#FF5023"/>
<path d="M52.2667 19.4005C51.5429 18.3534 50.183 17.8686 48.889 18.0722L41.7497 7.7664C37.0888 1.04773 27.0873 -1.07549 19.4654 3.04491C11.8326 7.18469 9.43095 15.9878 14.1137 22.7452L21.264 33.0511C20.7485 33.6522 20.5182 34.3987 20.6169 35.1452L18.9171 36.0662C17.8204 35.4845 16.4167 35.4361 15.2652 36.0662L3.50896 42.4456C1.853 43.3472 1.3266 45.2765 2.34649 46.7405L3.96956 49.0867C4.98946 50.5506 7.16085 51.0257 8.82779 50.1144L20.595 43.735C21.7575 43.1048 22.3387 41.9802 22.251 40.8556L23.9618 39.9249C24.4991 40.2448 25.1242 40.429 25.7603 40.429C26.3415 40.429 26.9337 40.2933 27.4601 40.0024C28.8529 39.2462 29.3683 37.7047 28.7432 36.4153C28.9406 36.2892 29.0942 36.105 29.1819 35.8917L29.9386 33.8073L32.3841 34.1563C32.9434 34.2436 33.5137 33.943 33.6892 33.4486L34.4459 31.3641L36.8805 31.7132C37.4507 31.8004 38.01 31.4999 38.1855 31.0054L38.9422 28.921L41.3878 29.27C41.958 29.3573 42.5173 29.0567 42.6928 28.5623L43.4495 26.4778L45.8951 26.8269C46.4544 26.9141 47.0246 26.6136 47.2001 26.1288L47.9129 24.1704L48.6038 25.1593C49.547 26.5166 51.5539 26.9529 53.1002 26.1094C54.6355 25.2757 55.118 23.5015 54.1749 22.1345L52.2667 19.4005ZM19.3777 41.9802L7.59952 48.3596C7.05119 48.6601 6.30546 48.5147 5.95452 48.0105L4.33146 45.6643C3.99149 45.1699 4.16696 44.5203 4.72626 44.2101L16.5044 37.8307C18.0836 36.9679 18.7855 39.4498 19.7835 40.5454V40.555C20.1015 41.0495 19.926 41.6797 19.3777 41.9802ZM21.3846 38.9069L20.5073 37.6368L21.582 37.0551L22.4593 38.3252L21.3846 38.9069ZM26.2538 38.2476C25.8151 38.4803 25.2449 38.364 24.9817 37.9762L23.0735 35.2325C22.8103 34.8544 22.9419 34.3599 23.3586 34.1175C23.3696 34.1175 23.3696 34.1175 23.3805 34.1078C23.3915 34.1078 23.3915 34.0981 23.3915 34.0981C23.8411 33.8655 24.3895 34.0109 24.6417 34.3793L26.5499 37.123C26.8241 37.5108 26.6815 38.0149 26.2538 38.2476ZM46.0486 22.561L45.2809 24.6552L42.8354 24.2965C42.2761 24.2189 41.7058 24.5097 41.5303 25.0042L40.7736 27.0886L38.3281 26.7396C37.7578 26.662 37.1985 26.9529 37.023 27.4473L36.2663 29.5318L33.8317 29.1828C33.2724 29.1052 32.7022 29.4057 32.5267 29.8905L31.77 31.9749L29.3245 31.6259C28.7652 31.5483 28.1949 31.8489 28.0194 32.3336L27.3176 34.2823L26.6376 33.3031C25.9138 32.2658 24.5759 31.7616 23.2599 31.9749L16.1096 21.6691C12.1178 15.8908 14.1576 8.3481 20.6937 4.80941C27.2079 1.28041 35.7619 3.09338 39.7537 8.85224L46.893 19.1581C46.1912 19.9725 46.0157 21.0777 46.4873 22.0472C46.3008 22.1732 46.1254 22.3477 46.0486 22.561ZM51.8719 24.3643C51.4113 24.6067 50.852 24.471 50.5998 24.0929L48.6916 21.3492C48.4284 20.971 48.56 20.4669 48.9877 20.2245H48.9986L49.0096 20.2148C49.4592 19.9822 50.0076 20.1179 50.2708 20.4863L52.179 23.23C52.4422 23.6178 52.3106 24.1219 51.8719 24.3643Z" fill="#212121"/>
</g>
<defs>
<clipPath id="clip0_11237_979">
<rect width="56.1493" height="49.6386" fill="white" transform="translate(0.164185 0.941071)"/>
</clipPath>
</defs>
</svg>
