<svg width="40" height="40" viewBox="0 0 40 40" fill="none" xmlns="http://www.w3.org/2000/svg">
<path d="M21.6501 4.5835C23.0848 4.5835 23.7199 4.58475 24.2435 4.63164C30.0657 5.15291 34.6799 9.76711 35.2012 15.5893C35.2481 16.113 35.2493 16.748 35.2493 18.1827V19.8327C35.2493 20.523 35.809 21.0827 36.4993 21.0827C37.1897 21.0827 37.7493 20.523 37.7493 19.8327V18.0987C37.7493 16.7705 37.7494 16.0157 37.6912 15.3664C37.0621 8.33958 31.4932 2.77072 24.4665 2.1416C23.8171 2.08346 23.0623 2.08347 21.734 2.0835H20.0002C19.3098 2.0835 18.7502 2.64314 18.7502 3.3335C18.7502 4.02386 19.3098 4.5835 20.0002 4.5835L21.6501 4.5835Z" fill="white"/>
<path fill-rule="evenodd" clip-rule="evenodd" d="M11.853 6.709C10.0996 5.09777 7.4043 5.09777 5.65081 6.709C5.57901 6.77498 5.50235 6.85165 5.40281 6.95121L3.90697 8.44705C2.40178 9.95224 1.76992 12.1221 2.23169 14.2001C4.85164 25.9898 14.0592 35.1974 25.849 37.8173C27.9269 38.2791 30.0968 37.6473 31.602 36.1421L33.0977 34.6464C33.1973 34.5468 33.274 34.4701 33.34 34.3982C34.9513 32.6447 34.9513 29.9495 33.34 28.196C33.274 28.1242 33.1973 28.0475 33.0977 27.9478L30.6489 25.4991C28.9487 23.7989 26.3812 23.3127 24.1771 24.2734C22.9152 24.8235 21.4453 24.5451 20.472 23.5717L16.4773 19.5771C15.504 18.6037 15.2256 17.1338 15.7756 15.872C16.7364 13.6679 16.2501 11.1003 14.55 9.40014L12.1011 6.95125C12.0015 6.85167 11.9248 6.77499 11.853 6.709ZM7.34233 8.54986C8.13937 7.81749 9.36448 7.81749 10.1615 8.54986C10.189 8.57514 10.2251 8.6108 10.3519 8.73758L12.7822 11.1679C13.7555 12.1412 14.0339 13.6112 13.4839 14.873C12.5231 17.0771 13.0094 19.6447 14.7095 21.3448L18.7042 25.3395C20.4044 27.0397 22.9719 27.5259 25.176 26.5652C26.4379 26.0151 27.9078 26.2935 28.8811 27.2668L31.3115 29.6972C31.4382 29.8239 31.4739 29.86 31.4992 29.8875C32.2316 30.6846 32.2316 31.9097 31.4992 32.7067C31.4739 32.7342 31.4382 32.7703 31.3115 32.8971L29.8342 34.3743C28.9334 35.2751 27.6349 35.6532 26.3913 35.3769C15.5491 32.9675 7.08153 24.5 4.67215 13.6577C4.3958 12.4142 4.77395 11.1156 5.67474 10.2148L7.15197 8.73758C7.27875 8.61081 7.31482 8.57514 7.34233 8.54986Z" fill="white"/>
<path d="M21.1785 7.97605C20.4881 7.97605 19.9285 8.5357 19.9285 9.22605C19.9285 9.91641 20.4881 10.4761 21.1785 10.4761H22.1213C22.1395 10.4761 22.1563 10.4761 22.1719 10.4761C22.2814 10.4761 22.3323 10.4762 22.3747 10.4768C26.2073 10.5317 29.301 13.6253 29.3559 17.4579C29.3565 17.5064 29.3566 17.5659 29.3566 17.7113V18.6541C29.3566 19.3445 29.9162 19.9041 30.6066 19.9041C31.2969 19.9041 31.8566 19.3445 31.8566 18.6541V17.6992C31.8566 17.683 31.8566 17.6676 31.8566 17.653C31.8566 17.5502 31.8565 17.4823 31.8556 17.4221C31.7813 12.2368 27.5958 8.0513 22.4105 7.97704C22.3417 7.97605 22.2629 7.97605 22.1333 7.97605H21.1785Z" fill="white"/>
</svg>
