<svg width="53" height="51" viewBox="0 0 53 51" fill="none" xmlns="http://www.w3.org/2000/svg">
<path d="M50.1661 38.4512L47.8631 36.4056C45.4833 34.3211 45.1215 31.1218 46.7555 28.6883C47.3038 27.8545 47.1612 26.7978 46.3936 26.1094L40.022 20.4863C39.0898 19.6622 37.5764 19.6622 36.6442 20.4863L24.0984 31.5483C22.5959 32.8863 22.5959 35.0289 24.0984 36.3571L38.3112 48.9219C39.2433 49.7459 40.7567 49.7459 41.6889 48.9219L50.1551 41.4373C51.0983 40.6132 51.0983 39.2753 50.1661 38.4512ZM44.1125 40.8071L40.9761 43.5799C40.4387 44.0549 39.5614 44.0549 39.024 43.5799L35.1637 40.1575C33.6065 38.7808 33.6065 36.551 35.1637 35.1743L36.4468 34.04C36.9842 33.5649 37.8615 33.5649 38.3879 34.04L44.1125 39.0911C44.6499 39.5564 44.6499 40.332 44.1125 40.8071Z" fill="#FF5023"/>
<path d="M48.6856 35.6784C46.7445 33.9624 46.3607 31.2963 47.7535 29.2118C48.576 27.9709 48.3566 26.4003 47.2161 25.392L43.3558 21.9793L51.0654 15.1637C51.526 14.7565 51.526 14.1069 51.0654 13.6998C50.6048 13.2926 49.87 13.2926 49.4094 13.6998L41.6999 20.5154L40.8335 19.7495C39.4407 18.5182 37.1816 18.5182 35.7888 19.7495L35.416 20.0791L33.5078 18.3922L35.065 17.0155C35.5256 16.6083 35.5256 15.9587 35.065 15.5515C34.6044 15.1443 33.8697 15.1443 33.4091 15.5515L31.8518 16.9282L29.7133 15.0377L31.2706 13.661C31.7312 13.2538 31.7312 12.6042 31.2706 12.197C30.81 11.7898 30.0752 11.7898 29.6146 12.197L28.0574 13.5737L25.9189 11.6832L27.4761 10.3065C27.9367 9.89929 27.9367 9.24973 27.4761 8.84253C27.0155 8.43534 26.2808 8.43534 25.8202 8.84253L24.2629 10.2192L22.1244 8.3287L23.6817 6.952C24.1423 6.54481 24.1423 5.89524 23.6817 5.48805C23.2211 5.08086 22.4863 5.08086 22.0257 5.48805L20.4684 6.86474L19.6021 6.09884C19.2731 5.80798 18.9221 5.55591 18.5493 5.31354L19.613 3.47148C19.9091 2.95764 19.6788 2.33716 19.0976 2.08509C18.5164 1.82332 17.8145 2.02692 17.5294 2.54075L16.5095 4.31495C15.4896 3.96592 14.4039 3.77202 13.2853 3.76233L12.9343 1.82332C12.8356 1.26101 12.2325 0.873204 11.5964 0.96046C10.9603 1.04772 10.5217 1.58094 10.6204 2.14326L10.9603 4.0144C9.77595 4.27617 8.66832 4.75122 7.69229 5.42018L6.06922 3.98531C5.60862 3.57812 4.87386 3.57812 4.41326 3.98531C3.95266 4.39251 3.95266 5.04207 4.41326 5.44927L6.02536 6.87444C5.33446 7.68882 4.80806 8.59046 4.50099 9.56966L2.31863 9.26912C1.68256 9.18186 1.0794 9.55997 0.980696 10.132C0.881997 10.6943 1.3097 11.2275 1.95673 11.3148L4.16102 11.625C4.13909 12.6721 4.33649 13.6416 4.75322 14.6111L2.79019 15.4836C2.20896 15.7454 1.98963 16.3659 2.27476 16.87C2.57086 17.3742 3.27273 17.5778 3.84299 17.3257L5.84989 16.4241C6.13502 16.7731 6.44209 17.1027 6.79302 17.413L7.65939 18.1789L6.11309 19.5556C5.65249 19.9628 5.65249 20.6123 6.11309 21.0195C6.57369 21.4267 7.30845 21.4267 7.76905 21.0195L9.32632 19.6428L11.4648 21.5334L9.90755 22.91C9.44695 23.3172 9.44695 23.9668 9.90755 24.374C10.3681 24.7812 11.1029 24.7812 11.5635 24.374L13.1208 22.9973L15.2593 24.8878L13.702 26.2645C13.2414 26.6717 13.2414 27.3213 13.702 27.7285C14.1626 28.1357 14.8974 28.1357 15.358 27.7285L16.9152 26.3518L19.0537 28.2423L17.4965 29.619C17.0359 30.0262 17.0359 30.6758 17.4965 31.083C17.9571 31.4902 18.6918 31.4902 19.1524 31.083L20.7097 29.7063L22.6837 31.4514C21.3458 33.1771 21.5212 35.5524 23.2759 37.0939L37.4887 49.6587C38.8814 50.89 41.1406 50.89 42.5224 49.6587L50.9886 42.1741C52.3814 40.9428 52.3814 38.9457 50.9886 37.7241L48.6856 35.6784ZM24.2848 29.939L8.45995 15.949C6.06922 13.8355 5.66346 10.035 8.44899 7.57248C8.44899 7.57248 8.45995 7.57248 8.45995 7.56279C8.45995 7.56279 8.45995 7.55309 8.47092 7.55309C11.059 5.27476 15.3031 5.21659 17.9461 7.56279L33.771 21.5527L24.2848 29.939ZM49.3327 40.7102L40.8664 48.1947C40.4058 48.6019 39.6052 48.6019 39.1337 48.1947L24.9319 35.6299C23.8791 34.6992 23.89 33.2062 24.9319 32.2852L37.4558 21.2134C37.9273 20.7965 38.706 20.7868 39.1885 21.2134L40.0549 21.9793L31.0403 29.9487C30.5797 30.3558 30.5797 31.0054 31.0403 31.4126C31.5009 31.8198 32.2357 31.8198 32.6963 31.4126L41.7108 23.4433L45.5601 26.8462C45.9549 27.1953 46.0207 27.7285 45.7356 28.1551C43.7945 31.0539 44.3319 34.7477 47.0297 37.1327L49.3436 39.1783C49.8152 39.6049 49.8152 40.2836 49.3327 40.7102Z" fill="#212121"/>
<path d="M44.946 38.3543L39.2324 33.3031C38.7498 32.8766 38.1138 32.6439 37.4338 32.6439C36.7539 32.6439 36.1178 32.8766 35.6353 33.3031L34.3522 34.4375C32.3453 36.2213 32.3453 39.1105 34.3522 40.8944L38.2125 44.307C39.2104 45.1893 40.8225 45.1893 41.8095 44.307L44.946 41.5342C45.933 40.6617 45.933 39.2268 44.946 38.3543ZM43.29 40.0703L40.1536 42.8431C40.0549 42.9303 39.9671 42.9303 39.8684 42.8431L35.9972 39.4304C34.9006 38.4609 34.9006 36.8709 35.9972 35.9014L37.2803 34.7671C37.3351 34.7186 37.39 34.7089 37.4229 34.7089C37.4667 34.7089 37.5216 34.7186 37.5654 34.7671L43.2791 39.8182C43.3668 39.8861 43.3668 40.0024 43.29 40.0703Z" fill="#212121"/>
</svg>
