<svg width="51" height="51" viewBox="0 0 51 51" fill="none" xmlns="http://www.w3.org/2000/svg">
<path d="M46.9998 9.06552H39.3232V8.03785C39.3232 5.7789 37.2395 3.93684 34.6843 3.93684H33.478C33.4231 2.26929 31.8878 0.941071 30.0015 0.941071H20.8334C18.9472 0.941071 17.4118 2.26929 17.357 3.92715H16.1507C13.5954 3.92715 11.5118 5.7692 11.5118 8.02815V9.05583H3.83511C1.93788 9.05583 0.380615 10.4228 0.380615 12.1001C0.380615 13.7773 1.92691 15.154 3.83511 15.154H11.5118V18.5473C11.5118 19.6234 12.0053 20.6899 12.8716 21.4558L18.4975 26.4294V33.8751H17.2912C16.6551 33.8751 16.1507 34.3308 16.1507 34.8834C16.1507 35.4361 16.6661 35.8917 17.2912 35.8917H21.7546V44.2101C21.7546 46.469 22.7855 48.6795 24.595 50.2792C24.8143 50.4731 25.0994 50.5797 25.4065 50.5797C25.7136 50.5797 26.0097 50.4731 26.218 50.2792L26.3058 50.2016C28.0824 48.6116 29.0694 46.4884 29.0694 44.2101V35.9111H33.5328C34.1689 35.9111 34.6733 35.4554 34.6733 34.9028C34.6733 34.3405 34.1579 33.8945 33.5328 33.8945H32.3265V26.4487L37.9524 21.4752C38.8187 20.7093 39.3122 19.6525 39.3122 18.5667V15.1734H46.9889C48.8861 15.1734 50.4324 13.8064 50.4324 12.1195C50.4434 10.4325 48.8971 9.06552 46.9998 9.06552ZM3.84608 13.1374C3.21001 13.1374 2.68361 12.6818 2.68361 12.1098C2.68361 11.5475 3.19904 11.0918 3.84608 11.0918H11.5227V13.1374H3.84608ZM19.649 4.0241C19.649 3.44239 20.1864 2.96734 20.8444 2.96734H30.0125C30.6705 2.96734 31.2079 3.44239 31.2079 4.0241V13.4962C31.2079 14.0779 30.6705 14.5529 30.0125 14.5529H20.8444C20.1864 14.5529 19.649 14.0779 19.649 13.4962V4.0241ZM26.7883 44.2004C26.7883 45.5965 26.3058 46.915 25.4284 48.0008C24.5511 46.8956 24.0576 45.5674 24.0576 44.2101V35.8917H26.7883V44.2004ZM20.8005 33.8751V27.0304H30.0454V33.8751H20.8005ZM37.0312 18.557C37.0312 19.1096 36.7789 19.6428 36.3403 20.0306L30.7144 25.0042H20.1316L14.5057 20.0306C14.067 19.6428 13.8148 19.0999 13.8148 18.557V8.03785C13.8148 6.89383 14.8676 5.96311 16.1616 5.96311H17.357V13.4962C17.357 15.1928 18.9252 16.5792 20.8444 16.5792H30.0125C31.9317 16.5792 33.4999 15.1928 33.4999 13.4962V5.95341H34.6953C35.9893 5.95341 37.0421 6.88414 37.0421 8.02815L37.0312 18.557ZM46.9998 13.1374H39.3232V11.0918H46.9998C47.6359 11.0918 48.1513 11.5475 48.1513 12.1098C48.1513 12.6721 47.6359 13.1374 46.9998 13.1374Z" fill="black"/>
<path d="M37.0312 18.557C37.0312 19.1096 36.7789 19.6428 36.3403 20.0306L30.7144 25.0042H20.1316L14.5057 20.0306C14.067 19.6428 13.8148 19.0999 13.8148 18.557V8.03785C13.8148 6.89383 14.8676 5.96311 16.1616 5.96311H17.357V13.4962C17.357 15.1928 18.9252 16.5792 20.8444 16.5792H30.0125C31.9317 16.5792 33.4999 15.1928 33.4999 13.4962V5.95341H34.6953C35.9893 5.95341 37.0421 6.88414 37.0421 8.02815L37.0312 18.557Z" fill="#FF5023"/>
<path d="M22.6486 7.69855H28.3512C28.9873 7.69855 29.4918 7.24288 29.4918 6.69026C29.4918 6.13764 28.9763 5.68198 28.3512 5.68198H22.6486C22.0125 5.68198 21.5081 6.13764 21.5081 6.69026C21.5081 7.24288 22.0125 7.69855 22.6486 7.69855ZM22.6486 11.8383H28.3512C28.9873 11.8383 29.4918 11.3827 29.4918 10.83C29.4918 10.2774 28.9763 9.82176 28.3512 9.82176H22.6486C22.0125 9.82176 21.5081 10.2774 21.5081 10.83C21.5081 11.3827 22.0125 11.8383 22.6486 11.8383Z" fill="black"/>
</svg>
