<svg width="50" height="36" viewBox="0 0 50 36" fill="none" xmlns="http://www.w3.org/2000/svg">
<path d="M7.8344 10.5144L12.33 17.9844C12.9198 18.9588 12.504 20.1639 11.4115 20.6852L8.98489 21.8476C7.88274 22.3775 6.50989 22.01 5.92014 21.0271L1.41487 13.5571C0.825122 12.5827 1.24084 11.3776 2.33332 10.8562L4.75999 9.69386C5.86213 9.1725 7.24465 9.54002 7.8344 10.5144ZM47.1927 22.822C47.1927 23.745 47.0767 24.6339 46.8447 25.4886H21.6209C19.6777 18.275 25.8748 11.3605 34.228 11.3605C41.3822 11.3691 47.1927 16.4972 47.1927 22.822Z" fill="#FF5023"/>
<path d="M48.5849 24.5826H48.0628C48.1595 24.0014 48.2175 23.4202 48.2175 22.8305C48.2175 17.1382 43.8476 12.3519 37.9211 10.9161L32.8358 4.23235C30.2157 0.779378 24.8984 -0.160787 20.9828 2.14689L9.43927 8.94171C9.06222 9.16394 8.74318 9.43744 8.49181 9.74513C7.48634 8.52291 5.6881 8.22377 4.27658 8.89043L1.84992 10.0528C0.254702 10.8135 -0.344712 12.5742 0.506069 13.9844L5.00168 21.4544C5.86212 22.8818 7.86339 23.4117 9.46828 22.6425L11.8949 21.4801C12.2913 21.2921 12.6297 21.0356 12.8907 20.7451C14.0219 22.3775 16.0232 23.3861 18.2178 23.3861H20.2674C20.2867 23.7878 20.3254 24.1809 20.3834 24.5741H19.494C18.9235 24.5741 18.4595 24.9843 18.4595 25.4886C18.4595 25.9929 18.9235 26.4031 19.494 26.4031H21.1085L21.0408 26.5142C20.8958 26.745 20.8668 27.0185 20.9732 27.2664C21.0795 27.5142 21.2922 27.7108 21.5726 27.8048L23.5255 28.4629L23.1968 30.2834C23.1485 30.5484 23.2355 30.8134 23.4288 31.0099C23.6222 31.2151 23.9026 31.3347 24.2023 31.3347L26.2809 31.3604L26.6773 33.1723C26.7353 33.4287 26.919 33.6595 27.1703 33.7877C27.4314 33.9244 27.7407 33.9501 28.0211 33.8561L29.9934 33.2492L31.0762 34.839C31.2309 35.0612 31.4919 35.2236 31.7819 35.2663C32.0817 35.3091 32.3814 35.2407 32.6134 35.0783L34.2279 33.9159L35.8425 35.0783C36.3259 35.4287 37.051 35.3176 37.3797 34.839L38.4625 33.2578L40.4251 33.8646C40.7055 33.9501 41.0149 33.9244 41.2759 33.7962C41.5369 33.668 41.7206 33.4373 41.7786 33.1809L42.175 31.3604L44.2536 31.3347C44.5533 31.3347 44.8337 31.2151 45.0271 31.0099C45.2204 30.8048 45.3074 30.5399 45.2591 30.2834L44.9304 28.4629L46.8833 27.8048C47.1637 27.7108 47.386 27.5142 47.4827 27.2664C47.5891 27.0185 47.5601 26.745 47.4151 26.5142L47.3474 26.4031H48.5945C49.165 26.4031 49.629 25.9929 49.629 25.4886C49.6193 24.9843 49.1553 24.5826 48.5849 24.5826ZM10.9185 19.8818L8.49181 21.0442C7.8924 21.3348 7.14796 21.1297 6.82892 20.5998L2.32365 13.1297C2.0046 12.5998 2.22697 11.9417 2.82638 11.6596L5.25304 10.4973C5.86212 10.2067 6.60656 10.4203 6.9256 10.9417L8.24044 13.1297L11.4115 18.4032C11.7306 18.9331 11.5082 19.5912 10.9185 19.8818ZM14.5246 19.6169L10.058 12.275C9.6713 11.634 9.89367 10.8562 10.5704 10.4631L22.1236 3.6597C23.2258 3.01013 24.473 2.70244 25.7105 2.70244C27.8084 2.70244 29.8677 3.59132 31.1245 5.24943L35.1174 10.4802C35.011 10.4716 34.3343 10.4545 34.2376 10.4545C33.3385 10.4545 32.1977 10.5571 31.2019 10.7537L28.2918 6.92463C27.3734 5.71097 25.3914 5.36909 24.0282 6.1725L16.8063 10.4289C15.1434 11.4032 14.602 13.3178 15.5494 14.8818C16.2165 15.9929 17.512 16.6853 18.9429 16.6853H22.0946C20.5671 19.0271 20.4221 21.1468 20.3254 21.5741H18.2371C16.6709 21.5656 15.2497 20.822 14.5246 19.6169ZM23.5255 14.8562H18.9332C18.2661 14.8562 17.6667 14.54 17.3573 14.0272C16.9126 13.3007 17.164 12.4032 17.9374 11.9502L25.1691 7.69386C25.3431 7.5913 25.5268 7.54856 25.7298 7.54856C26.0682 7.54856 26.3872 7.70241 26.5709 7.95027L29.1233 11.3178C26.9383 12.0699 24.966 13.3519 23.5255 14.8562ZM34.0829 12.2836C41.3339 12.1981 47.241 17.9502 45.9939 24.5826H22.462C21.2535 18.1297 26.861 12.3605 34.0829 12.2836ZM39.1779 26.4031C37.9791 27.6937 36.1712 28.4715 34.2279 28.4715C32.2847 28.4715 30.4768 27.6937 29.2876 26.4031H39.1779ZM43.4125 27.0271C42.9581 27.1809 42.6874 27.5997 42.7648 28.0185L43.0355 29.5313L41.3049 29.557C40.8118 29.5655 40.3961 29.8732 40.3091 30.292L39.9804 31.8048L38.3465 31.3005C37.8824 31.1552 37.3797 31.3176 37.1187 31.6937L36.2195 33.0099L34.8757 32.0441C34.6823 31.9074 34.4503 31.839 34.2279 31.839C33.9959 31.839 33.7639 31.9074 33.5802 32.0441L32.2363 33.0099L31.3372 31.6937C31.0859 31.3262 30.5734 31.1552 30.1191 31.3005L28.4852 31.8048L28.1565 30.292C28.0598 29.8646 27.6441 29.557 27.1607 29.5484L25.4301 29.5228L25.7008 28.01C25.7781 27.5826 25.5074 27.1724 25.053 27.0185L23.4288 26.4715L23.4772 26.386H26.8319C28.3015 28.7621 31.1245 30.2749 34.2279 30.2749C37.3314 30.2749 40.1544 28.7621 41.6239 26.386H44.9787L45.0271 26.4715L43.4125 27.0271Z" fill="#212121"/>
</svg>
