<svg width="21" height="22" viewBox="0 0 21 22" fill="none" xmlns="http://www.w3.org/2000/svg">
<path d="M10.5556 1.70373C12.6448 1.70373 14.2712 1.7986 15.5432 2.04333C16.8109 2.28723 17.6632 2.66846 18.2601 3.19462C19.4461 4.23998 19.9259 6.1292 19.9259 9.9383C19.9259 12.3929 19.7055 14.1991 19.1122 15.3757C18.8274 15.9405 18.4668 16.3383 18.013 16.6029C17.5543 16.8703 16.9393 17.0371 16.0928 17.0371C15.0014 17.0371 14.1823 17.2821 13.5418 17.7161C12.9166 18.1397 12.5395 18.6943 12.259 19.1357C12.2166 19.2025 12.1768 19.2656 12.1392 19.3253C11.904 19.6987 11.7518 19.9403 11.5405 20.1299C11.3522 20.2989 11.089 20.4445 10.5558 20.4445C10.0226 20.4445 9.75945 20.2989 9.57111 20.1299C9.35981 19.9403 9.20762 19.6987 8.97243 19.3253C8.9348 19.2656 8.89505 19.2025 8.8526 19.1357C8.57206 18.6943 8.19495 18.1397 7.56974 17.7161C6.92921 17.2821 6.11009 17.0371 5.01874 17.0371C4.17668 17.0371 3.56372 16.8661 3.10517 16.5931C2.65007 16.3223 2.28709 15.9153 2.00048 15.342C1.40503 14.151 1.1852 12.3417 1.1852 9.9383C1.1852 6.17761 1.66372 4.28348 2.85364 3.22577C3.45233 2.69361 4.30597 2.3052 5.57209 2.05508C6.84281 1.80405 8.46814 1.70373 10.5556 1.70373Z" stroke="#212135" stroke-width="1.7037" stroke-linecap="round" stroke-linejoin="round"/>
<circle cx="7.14818" cy="10.2223" r="0.851852" fill="#212135"/>
<circle cx="10.5556" cy="10.2223" r="0.851852" fill="#212135"/>
<circle cx="13.963" cy="10.2223" r="0.851852" fill="#212135"/>
</svg>
