<svg width="30" height="30" viewBox="0 0 30 30" fill="none" xmlns="http://www.w3.org/2000/svg">
<path d="M15 0.851852C18.0728 0.851852 20.4896 0.990965 22.394 1.35735C24.2941 1.72291 25.6207 2.30321 26.5689 3.13905C28.4575 4.80375 29.1481 7.7547 29.1481 13.3333C29.1481 16.9382 28.8282 19.6734 27.9114 21.4915C27.4649 22.3769 26.8865 23.0236 26.1435 23.4568C25.3955 23.8929 24.4198 24.1481 23.1253 24.1481C21.586 24.1481 20.4662 24.4927 19.6053 25.076C18.7598 25.649 18.2427 26.4027 17.8356 27.0431C17.7754 27.1378 17.7183 27.2288 17.6633 27.3162C17.3215 27.8598 17.0657 28.2667 16.7112 28.5848C16.3565 28.903 15.8735 29.1482 15.0003 29.1481C14.1272 29.1481 13.6442 28.903 13.2895 28.5847C12.935 28.2666 12.6792 27.8597 12.3374 27.3162C12.2825 27.2287 12.2253 27.1377 12.1651 27.043C11.758 26.4026 11.2409 25.6489 10.3953 25.076C9.53441 24.4927 8.41458 24.1481 6.87531 24.1481C5.58533 24.1481 4.61154 23.8859 3.8637 23.4407C3.11932 22.9976 2.53859 22.3376 2.09022 21.4408C1.17125 19.6026 0.851852 16.8643 0.851852 13.3333C0.851852 7.82398 1.5412 4.86813 3.43375 3.18585C4.38375 2.34141 5.71167 1.75001 7.61013 1.37497C9.51319 0.999026 11.929 0.851852 15 0.851852Z" stroke="#FF5023" stroke-width="1.7037" stroke-linecap="round" stroke-linejoin="round"/>
<circle cx="10" cy="13.75" r="1.25" fill="#FF5023"/>
<ellipse cx="15" cy="13.75" rx="1.25" ry="1.25" fill="#FF5023"/>
<circle cx="20" cy="13.75" r="1.25" fill="#FF5023"/>
</svg>
