<svg width="57" height="51" viewBox="0 0 57 51" fill="none" xmlns="http://www.w3.org/2000/svg">
<g clip-path="url(#clip0_11237_985)">
<path d="M23.4555 26.0997V30.414C23.4555 31.9168 22.0737 33.1383 20.3739 33.1383H17.1497C17.6651 31.0345 18.6631 28.7368 19.8475 26.1094H23.4555V26.0997ZM35.6614 6.72903H32.6675V26.0997H35.6614C37.2515 26.0997 38.5346 24.9654 38.5346 23.5596V9.26914C38.5346 7.87305 37.2515 6.72903 35.6614 6.72903Z" fill="#FF5023"/>
<path d="M55.4013 15.3867H47.0886C46.9021 14.9407 46.617 14.5335 46.2112 14.2136L39.6641 8.9298C39.4558 7.08774 37.7011 5.69165 35.6723 5.69165H12.9165C6.3365 5.69165 0.864137 10.0932 0.447404 15.7066C0.0635717 20.971 3.94577 25.5568 9.52779 26.7978C8.01439 29.1052 5.62366 34.04 5.83203 41.9027C5.88686 44.1034 7.87183 45.8195 10.3503 45.8195H19.2004C21.0976 45.8195 22.6329 44.4525 22.6329 42.7849C22.6329 41.5536 21.7556 40.4193 20.4396 39.9636L19.2223 39.5468C18.9701 39.4595 18.7617 39.2947 18.663 39.1202C17.8844 37.5981 17.7747 35.9887 18.1037 34.166H20.3738C22.7207 34.166 24.6179 32.4791 24.6179 30.414V27.1371H35.6942C37.7998 27.1274 39.4667 25.6731 39.6641 23.9183L46.2112 18.6345C46.617 18.3146 46.9021 17.9074 47.0886 17.4614H55.4013C56.0483 17.4614 56.5747 16.9961 56.5747 16.4241C56.5747 15.8424 56.0483 15.3867 55.4013 15.3867ZM35.6833 25.0624H33.8409V7.76639H35.6723C36.6154 7.76639 37.3612 8.45474 37.3612 9.26912V23.5596C37.3612 24.3934 36.5935 25.0624 35.6833 25.0624ZM18.3779 41.4761L19.5842 41.893C20.0009 42.0384 20.2861 42.3971 20.2861 42.7849C20.2861 43.3181 19.7926 43.7544 19.1894 43.7544H10.3393C9.14396 43.7544 8.18986 42.9206 8.16793 41.8542C7.90473 32.101 11.9405 27.2147 12.4011 26.6814C12.6643 26.3809 12.7191 25.9834 12.5546 25.6344C12.3901 25.2853 12.0172 25.0527 11.5895 25.0139C6.3036 24.5679 2.44333 20.5348 2.7833 15.8327C3.1123 11.3051 7.56476 7.7567 12.9165 7.7567H31.494V25.0624H19.8474C19.3649 25.0624 18.9372 25.3144 18.7617 25.7119C16.678 30.2783 14.2544 35.5136 16.5355 39.9733C16.8864 40.652 17.5554 41.1949 18.3779 41.4761ZM22.282 30.414C22.282 31.3447 21.4266 32.101 20.3738 32.101H18.6411C19.1455 30.5304 19.8584 28.8628 20.637 27.1371H22.282V30.414ZM44.643 17.093L39.708 21.0777V11.7511L44.643 15.7357C44.8623 15.9102 44.983 16.1526 44.983 16.4144C44.983 16.6761 44.8623 16.9185 44.643 17.093Z" fill="#212121"/>
<path d="M11.8307 13.1762H21.4265C22.0736 13.1762 22.6 12.7109 22.6 12.1389C22.6 11.5669 22.0736 11.1015 21.4265 11.1015H11.8307C11.1837 11.1015 10.6573 11.5669 10.6573 12.1389C10.6573 12.7109 11.1837 13.1762 11.8307 13.1762ZM22.589 20.6802C22.589 20.1082 22.0626 19.6428 21.4156 19.6428H11.8307C11.1837 19.6428 10.6573 20.1082 10.6573 20.6802C10.6573 21.2522 11.1837 21.7176 11.8307 21.7176H21.4265C22.0626 21.7176 22.589 21.2522 22.589 20.6802ZM24.7275 16.4144C24.7275 15.8424 24.2011 15.377 23.5541 15.377H9.69223C9.0452 15.377 8.5188 15.8424 8.5188 16.4144C8.5188 16.9864 9.0452 17.4518 9.69223 17.4518H23.565C24.2011 17.4518 24.7275 16.9864 24.7275 16.4144Z" fill="#212121"/>
</g>
<defs>
<clipPath id="clip0_11237_985">
<rect width="56.1493" height="49.6386" fill="white" transform="translate(0.425415 0.941071)"/>
</clipPath>
</defs>
</svg>
