<svg width="51" height="57" viewBox="0 0 51 57" fill="none" xmlns="http://www.w3.org/2000/svg">
<path d="M13.5685 38.4797L9.68634 42.3619C8.40324 43.6559 6.29764 43.6559 4.99261 42.3619L2.52511 39.9053C1.23105 38.6113 1.23105 36.5057 2.52511 35.2006L6.41828 31.3075C6.45118 31.3514 6.49504 31.4062 6.54987 31.4501L13.4369 38.3481C13.4808 38.3919 13.5137 38.4358 13.5685 38.4797ZM28.4393 16.4477C30.3146 18.3339 33.3743 18.3339 35.2496 16.4586L41.38 22.6C42.356 23.565 42.2134 25.1771 41.1058 25.9777C34.8987 30.4411 26.1911 29.8818 20.6091 24.2888C15.0271 18.7068 14.4678 10.0102 18.9312 3.80312C19.7318 2.68453 21.3439 2.55293 22.309 3.51799L28.4393 9.65932C26.564 11.5127 26.564 14.5724 28.4393 16.4477Z" fill="#FF5023"/>
<path d="M16.025 25.4623C15.5644 25.0017 14.8296 25.0017 14.369 25.4623L11.1667 28.6645C10.7061 29.1251 10.7061 29.8599 11.1667 30.3205C11.6273 30.7811 12.3621 30.7811 12.8227 30.3205L16.025 27.1182C16.4746 26.6576 16.4746 25.9229 16.025 25.4623ZM17.7687 28.8729L14.5664 32.0751C14.1058 32.5357 14.1058 33.2705 14.5664 33.7311C15.027 34.1917 15.7618 34.1917 16.2224 33.7311L19.4246 30.5288C19.8852 30.0682 19.8852 29.3335 19.4246 28.8729C18.975 28.4123 18.2293 28.4123 17.7687 28.8729Z" fill="#212121"/>
<path d="M48.6179 32.2945L48.3218 32.5906L42.2353 26.5041C42.7727 25.9448 43.1127 25.221 43.1785 24.4314C43.2552 23.4334 42.9043 22.4684 42.2024 21.7665L41.5554 21.1195C45.6788 16.1625 45.4157 8.77101 40.7658 4.12115C36.1159 -0.51774 28.7354 -0.78094 23.7784 3.34252L23.1314 2.69549C21.6509 1.20402 19.1944 1.41239 17.9661 3.11222C15.0819 7.12601 14.1826 11.9842 15.1258 16.5135L5.71637 25.9338C4.40037 27.2498 3.96171 29.3116 4.9158 31.1539L1.69161 34.3781C-0.0630557 36.1328 -0.0630557 38.9841 1.69161 40.7388L2.25091 41.2981C0.989743 43.5463 1.35164 46.3866 3.23791 48.2619L11.1887 56.2237C11.6493 56.6843 12.3841 56.6843 12.8447 56.2237C13.3053 55.7631 13.3053 55.0283 12.8447 54.5677L4.8829 46.595C3.93977 45.6519 3.64367 44.2701 4.02751 43.0528L4.14814 43.1734C5.9357 44.961 8.78703 44.8952 10.4978 43.1734L13.722 39.9492C15.5864 40.9143 17.6481 40.4646 18.9641 39.1596L28.3735 29.7502C30.4681 30.1889 32.3544 30.2108 34.2626 29.9366L42.6082 38.2823L42.3231 38.5674C41.8625 39.028 41.8625 39.7628 42.3231 40.2234C42.7837 40.684 43.5184 40.684 43.979 40.2234C50.559 33.6543 50.3177 33.8846 50.2848 33.9175C50.7454 33.4569 50.7454 32.7222 50.2848 32.2616C49.8242 31.801 49.0785 31.8339 48.6179 32.2945ZM34.4161 15.6252C32.9356 17.1057 30.2049 17.007 28.8889 15.1646C28.867 15.1317 28.8341 15.0988 28.8121 15.0659C27.9019 13.695 27.9896 11.7539 29.2727 10.4708C30.6874 9.05615 33.0014 9.04518 34.4161 10.4708C35.8418 11.8965 35.8308 14.1995 34.4161 15.6252ZM39.1208 5.76615C42.8495 9.49481 43.1127 15.4168 39.8994 19.4525L36.8178 16.3709C38.3531 14.0679 38.1448 10.8876 36.0721 8.82585C33.9884 6.73122 30.7971 6.55575 28.527 8.08011L25.4454 4.99848C29.4701 1.77429 35.3812 2.03749 39.1208 5.76615ZM8.85283 41.5394C8.03033 42.3728 6.6595 42.3838 5.81507 41.5284L3.34757 39.0828C2.50314 38.2384 2.50314 36.8785 3.34757 36.0341L6.40727 32.9744L11.9125 38.4797L8.85283 41.5394ZM25.8182 29.0155L17.3081 37.5256C16.4637 38.37 15.1038 38.37 14.2594 37.5256L7.36137 30.6166C6.51694 29.7831 6.5279 28.4233 7.36137 27.5898L15.8605 19.0797C16.6721 21.2072 18.0539 23.4005 19.7646 25.1113C21.5083 26.8441 23.603 28.171 25.8182 29.0155ZM21.4316 23.4444C16.4527 18.4984 15.5425 10.4928 19.8634 4.47209C20.2472 3.93472 21.0148 3.87989 21.4754 4.32952C21.7935 4.64755 27.0794 9.94444 26.8601 9.71414C25.3138 12.0281 25.6208 15.2742 27.6058 17.2592C29.6127 19.2661 32.8588 19.5512 35.1618 18.0159C35.2825 18.1365 40.9084 23.7624 40.5574 23.4005C40.8535 23.6966 40.8755 24.0476 40.8645 24.223C40.8535 24.4095 40.7768 24.7494 40.4258 25.0017C34.46 29.3006 26.4324 28.4671 21.4316 23.4444ZM44.2642 36.6482L36.9604 29.3445C37.9474 29.0374 39.1976 28.5 40.3052 27.864L46.6768 34.2356C46.5562 34.3562 44.0997 36.8018 44.2642 36.6482Z" fill="#212121"/>
</svg>
