<svg width="38" height="38" viewBox="0 0 38 38" fill="none" xmlns="http://www.w3.org/2000/svg">
<path d="M23.75 3.5625C23.0942 3.5625 22.5625 4.09416 22.5625 4.75C22.5625 5.40584 23.0942 5.9375 23.75 5.9375H25.3333C29.0498 5.9375 32.0625 8.95025 32.0625 12.6667V14.25C32.0625 14.9058 32.5942 15.4375 33.25 15.4375C33.9058 15.4375 34.4375 14.9058 34.4375 14.25V12.6667C34.4375 7.63858 30.3614 3.5625 25.3333 3.5625H23.75Z" fill="white"/>
<path d="M12.6667 3.5625C7.63859 3.5625 3.56251 7.63858 3.56251 12.6667V14.25C3.56251 14.9058 4.09417 15.4375 4.75001 15.4375C5.40585 15.4375 5.93751 14.9058 5.93751 14.25V12.6667C5.93751 8.95025 8.95026 5.9375 12.6667 5.9375H14.25C14.9058 5.9375 15.4375 5.40584 15.4375 4.75C15.4375 4.09416 14.9058 3.5625 14.25 3.5625H12.6667Z" fill="white"/>
<path d="M1.58334 20.9792C0.927505 20.9792 0.395844 21.5108 0.395844 22.1667C0.395844 22.8225 0.927505 23.3542 1.58334 23.3542H3.63008C3.58632 23.478 3.56251 23.6112 3.56251 23.75V25.3333C3.56251 30.3614 7.63859 34.4375 12.6667 34.4375H14.25C14.9058 34.4375 15.4375 33.9058 15.4375 33.25C15.4375 32.5942 14.9058 32.0625 14.25 32.0625H12.6667C8.95026 32.0625 5.93751 29.0497 5.93751 25.3333V23.75C5.93751 23.6112 5.9137 23.478 5.86994 23.3542H32.1301C32.0863 23.478 32.0625 23.6112 32.0625 23.75V25.3333C32.0625 29.0497 29.0498 32.0625 25.3333 32.0625H23.75C23.0942 32.0625 22.5625 32.5942 22.5625 33.25C22.5625 33.9058 23.0942 34.4375 23.75 34.4375H25.3333C30.3614 34.4375 34.4375 30.3614 34.4375 25.3333V23.75C34.4375 23.6112 34.4137 23.478 34.3699 23.3542H36.4167C37.0725 23.3542 37.6042 22.8225 37.6042 22.1667C37.6042 21.5108 37.0725 20.9792 36.4167 20.9792H1.58334Z" fill="white"/>
</svg>
