<svg width="50" height="50" viewBox="0 0 50 50" fill="none" xmlns="http://www.w3.org/2000/svg">
<path d="M20.2288 31.1046L15.8106 26.319C14.4861 24.8785 12.2721 24.7045 10.7349 25.9323L1.48265 33.3089C0.989585 33.7053 1.08626 34.498 1.65667 34.7301C3.7933 35.5905 5.41751 37.4177 6.00726 39.6994L7.90218 47.0566C8.19222 48.1974 9.4974 48.7581 10.5319 48.1781L18.5176 43.6728C19.5424 43.0831 20.2385 42.0486 20.3835 40.8595L21.1956 34.0823C21.3117 32.9995 20.9733 31.9167 20.2288 31.1046ZM14.3314 42.3097C13.1422 42.8511 11.7404 42.271 11.2763 41.0432L8.70462 34.1983C8.2889 33.0865 8.81097 31.8394 9.89378 31.3463C11.0829 30.8049 12.4848 31.3753 12.9489 32.6031L15.5205 39.4577C15.9363 40.5695 15.4239 41.8166 14.3314 42.3097Z" fill="#FF5023"/>
<path d="M47.5216 1.84001C46.8352 0.979571 45.8587 0.438171 44.7662 0.312488C43.6737 0.186806 42.6103 0.496178 41.7595 1.1826L13.0166 24.0954C11.9821 24.1051 10.9477 24.4241 10.0872 25.1106L0.834955 32.4871C0.312885 32.9029 0.0421815 33.5796 0.138861 34.2467C0.235541 34.9041 0.660932 35.4552 1.27968 35.7065C3.1166 36.451 4.50878 38.0365 5.00185 39.9604L6.8871 47.308C7.35117 49.1255 9.41044 50.0053 11.054 49.0772L19.0301 44.572C20.0259 44.0112 20.78 43.1024 21.1667 42.0487L26.7451 41.4976C27.2865 41.4396 27.6926 40.9949 27.6926 40.4535L27.6829 36.9924L30.7767 35.4358C31.1344 35.2521 31.3567 34.8944 31.3567 34.4884L31.3374 31.0466L34.4311 29.4998C34.7889 29.3257 35.0112 28.9584 35.0112 28.5523L34.9919 25.1009L38.076 23.5637C38.4337 23.3897 38.6561 23.0223 38.6561 22.6259L38.6464 19.1842L41.7305 17.6373C42.0882 17.4633 42.3105 17.0959 42.3105 16.6995L42.3009 13.2578L45.3946 11.7109C45.7523 11.5369 45.9747 11.1695 45.9747 10.7634L45.9554 7.31202L49.0395 5.7845C49.3198 5.63948 49.5228 5.37845 49.6002 5.06908C49.6679 4.75971 49.5905 4.44067 49.3972 4.1893L47.5216 1.84001ZM17.9956 42.7544L10.0195 47.2596C9.58447 47.5013 9.04306 47.2693 8.92705 46.7956L7.03212 39.4287C6.40371 36.9924 4.69247 34.9524 2.4205 33.9083L11.3924 26.7541C12.5235 25.855 14.1284 26.0387 15.0372 27.0345C15.1339 27.1408 19.7358 32.1391 19.4458 31.8297C19.9775 32.4098 20.2289 33.1832 20.1322 33.9663L19.3298 40.7435C19.2331 41.5749 18.7304 42.329 17.9956 42.7544ZM44.4375 5.72649C44.0798 5.91018 43.8574 6.26789 43.8574 6.67394L43.8768 10.1254L40.783 11.6722C40.4253 11.8462 40.2029 12.2136 40.2029 12.61L40.2126 16.0518L37.1285 17.5986C36.7708 17.7726 36.5484 18.14 36.5484 18.5364L36.5581 21.9782L33.474 23.5347C33.1163 23.7087 32.8939 24.0761 32.8939 24.4821L32.9133 27.9336L29.8195 29.4804C29.4618 29.6545 29.2394 30.0218 29.2394 30.4279L29.2588 33.8696L26.165 35.4262C25.8073 35.6002 25.585 35.9676 25.585 36.3639L25.5946 39.5157L21.5534 39.9121L22.2398 34.208C22.4042 32.8158 21.9498 31.4333 21.0023 30.3989C20.9057 30.2925 16.3037 25.2942 16.5937 25.6133C16.3617 25.3619 15.859 24.9462 15.5593 24.7625L43.0743 2.81646C43.49 2.48776 44.0121 2.33307 44.5342 2.40075C45.0659 2.45875 45.5493 2.72945 45.878 3.14517L46.9415 4.47934L44.4375 5.72649Z" fill="#212121"/>
<path d="M13.935 32.2358C13.2583 30.4376 11.199 29.5868 9.44909 30.3795C7.87321 31.1046 7.10944 32.9415 7.71853 34.5561L10.2902 41.4106C10.967 43.2185 13.0456 44.0499 14.7761 43.2571C16.352 42.5321 17.1158 40.6952 16.5067 39.071L13.935 32.2358ZM13.8964 41.3526C13.2486 41.6426 12.5042 41.3332 12.2528 40.6758L9.69079 33.831C9.46843 33.2316 9.7488 32.5645 10.3289 32.2938C10.9766 31.9941 11.7211 32.3228 11.9724 32.9705L14.5441 39.8154C14.7568 40.4148 14.4764 41.0915 13.8964 41.3526Z" fill="#212121"/>
</svg>
