<svg width="30" height="30" viewBox="0 0 30 30" fill="none" xmlns="http://www.w3.org/2000/svg">
<path d="M0.918963 24.2879C-0.365834 18.4166 -0.0184485 13.2002 0.276657 11.2406C0.487404 9.84121 7.93407 4.11925 12.1743 0.96223C13.8906 -0.315641 16.2245 -0.321419 17.9463 0.949057C22.2221 4.10415 29.7417 9.84222 29.8343 11.2406C29.8372 11.2847 29.8403 11.3305 29.8434 11.3779C29.9803 13.4317 30.3212 18.549 29.1914 24.2879C28.5492 27.5497 26.6457 29.0222 22.7658 29.5067C22.4891 29.5413 22.2131 29.5741 21.9377 29.605C21.5699 29.6463 21.25 29.3564 21.25 28.9854V20.1426C21.25 18.067 19.5711 16.3843 17.5 16.3843L12.5 16.3843C10.4289 16.3843 8.75 18.067 8.75 20.1426L8.75 28.9748C8.75 29.3466 8.42883 29.6367 8.0604 29.594C7.82205 29.5663 7.58341 29.5373 7.34444 29.5068C3.46582 29.012 1.62763 27.5263 0.918963 24.2879Z" fill="#FF5023"/>
<path d="M11.25 29.2926C11.25 29.6232 11.5063 29.8972 11.8357 29.9149C13.9406 30.0276 16.0399 30.0284 18.1634 29.9171C18.4931 29.8998 18.75 29.6257 18.75 29.2947L18.75 20.1426C18.75 19.4507 18.1903 18.8898 17.5 18.8898L12.5 18.8898C11.8096 18.8898 11.25 19.4507 11.25 20.1426L11.25 29.2926Z" fill="#FF5023"/>
</svg>
