<svg width="21" height="22" viewBox="0 0 21 22" fill="none" xmlns="http://www.w3.org/2000/svg">
<path d="M1.1796 17.4036C0.304036 13.4024 0.540772 9.84754 0.741881 8.51213C0.885501 7.55847 5.96026 3.65906 8.84989 1.50761C10.0195 0.636764 11.61 0.632826 12.7834 1.49863C15.6973 3.64877 20.8218 7.55915 20.8849 8.51213C20.8868 8.54219 20.8889 8.57338 20.8911 8.60568C20.9843 10.0054 21.2167 13.4927 20.4467 17.4036C20.0091 19.6265 18.7119 20.6299 16.0678 20.9602C15.8792 20.9837 15.6911 21.006 15.5035 21.0271C15.2528 21.0553 15.0348 20.8577 15.0348 20.6049V14.5787C15.0348 13.1642 13.8907 12.0175 12.4793 12.0175H9.07185C7.66046 12.0175 6.5163 13.1642 6.5163 14.5787L6.5163 20.5977C6.5163 20.851 6.29743 21.0488 6.04635 21.0196C5.88392 21.0008 5.7213 20.981 5.55844 20.9602C2.91524 20.623 1.66254 19.6105 1.1796 17.4036Z" fill="#000"/>
<path d="M8.22 20.8142C8.22 21.0395 8.39469 21.2263 8.61917 21.2383C10.0536 21.3151 11.4842 21.3156 12.9313 21.2398C13.1561 21.2281 13.3311 21.0412 13.3311 20.8157L13.3311 14.5787C13.3311 14.1072 12.9497 13.7249 12.4793 13.7249H9.07185C8.60139 13.7249 8.22 14.1072 8.22 14.5787L8.22 20.8142Z" fill="#000"/>
</svg>
