<svg width="28" height="27" viewBox="0 0 28 27" fill="none" xmlns="http://www.w3.org/2000/svg">
<path d="M14.1908 8.64499C13.2032 8.64499 12.2378 8.93785 11.4166 9.48654C10.5954 10.0352 9.95542 10.8151 9.57748 11.7275C9.19954 12.6399 9.10066 13.644 9.29333 14.6126C9.486 15.5812 9.96158 16.471 10.6599 17.1693C11.3583 17.8676 12.248 18.3432 13.2166 18.5359C14.1853 18.7286 15.1893 18.6297 16.1017 18.2517C17.0141 17.8738 17.794 17.2338 18.3427 16.4126C18.8914 15.5914 19.1842 14.626 19.1842 13.6384C19.1828 12.3145 18.6563 11.0452 17.7202 10.1091C16.784 9.1729 15.5147 8.64637 14.1908 8.64499ZM14.1908 16.9674C13.5324 16.9674 12.8888 16.7721 12.3413 16.4063C11.7939 16.0405 11.3672 15.5206 11.1153 14.9123C10.8633 14.3041 10.7974 13.6347 10.9258 12.989C11.0543 12.3432 11.3713 11.7501 11.8369 11.2845C12.3024 10.8189 12.8956 10.5019 13.5414 10.3734C14.1871 10.245 14.8564 10.3109 15.4647 10.5629C16.073 10.8148 16.5929 11.2415 16.9587 11.789C17.3245 12.3364 17.5198 12.98 17.5198 13.6384C17.5198 14.5213 17.169 15.368 16.5447 15.9923C15.9204 16.6166 15.0737 16.9674 14.1908 16.9674ZM19.1842 2.81934H9.19738C7.65283 2.82099 6.17201 3.43529 5.07984 4.52746C3.98768 5.61962 3.37338 7.10044 3.37172 8.64499V18.6318C3.37338 20.1764 3.98768 21.6572 5.07984 22.7494C6.17201 23.8415 7.65283 24.4558 9.19738 24.4575H19.1842C20.7288 24.4558 22.2096 23.8415 23.3018 22.7494C24.3939 21.6572 25.0082 20.1764 25.0099 18.6318V8.64499C25.0082 7.10044 24.3939 5.61962 23.3018 4.52746C22.2096 3.43529 20.7288 2.82099 19.1842 2.81934ZM23.3454 18.6318C23.3454 19.7355 22.907 20.7939 22.1266 21.5742C21.3463 22.3546 20.2878 22.793 19.1842 22.793H9.19738C8.09377 22.793 7.03535 22.3546 6.25498 21.5742C5.47461 20.7939 5.0362 19.7355 5.0362 18.6318V8.64499C5.0362 7.54138 5.47461 6.48297 6.25498 5.70259C7.03535 4.92222 8.09377 4.48381 9.19738 4.48381H19.1842C20.2878 4.48381 21.3463 4.92222 22.1266 5.70259C22.907 6.48297 23.3454 7.54138 23.3454 8.64499V18.6318ZM20.8487 8.22888C20.8487 8.47578 20.7755 8.71713 20.6383 8.92242C20.5011 9.12772 20.3062 9.28772 20.0781 9.38221C19.85 9.47669 19.599 9.50141 19.3568 9.45324C19.1146 9.40508 18.8922 9.28618 18.7176 9.1116C18.543 8.93701 18.4241 8.71458 18.376 8.47242C18.3278 8.23026 18.3525 7.97926 18.447 7.75115C18.5415 7.52304 18.7015 7.32808 18.9068 7.19091C19.1121 7.05373 19.3534 6.98052 19.6003 6.98052C19.9314 6.98052 20.249 7.11204 20.4831 7.34616C20.7172 7.58027 20.8487 7.89779 20.8487 8.22888Z" fill="url(#paint0_linear_11201_682)"/>
<defs>
<linearGradient id="paint0_linear_11201_682" x1="14.1908" y1="2.81934" x2="14.1908" y2="24.4575" gradientUnits="userSpaceOnUse">
<stop stop-color="#BD69FF"/>
<stop offset="1" stop-color="#FF6969"/>
</linearGradient>
</defs>
</svg>
