<svg width="28" height="26" viewBox="0 0 28 26" fill="none" xmlns="http://www.w3.org/2000/svg">
<path d="M28 10.8833C28 11.4297 27.5447 11.8727 26.9832 11.8727C26.4216 11.8727 25.9663 11.4297 25.9663 10.8833C25.9663 8.13994 25.031 5.93072 23.4679 4.40981C21.9048 2.8889 19.6343 1.97878 16.8148 1.97878C16.2533 1.97878 15.798 1.53581 15.798 0.989388C15.798 0.442964 16.2533 0 16.8148 0C20.0964 0 22.9101 1.06865 24.9059 3.0106C26.9017 4.95255 28 7.69027 28 10.8833Z" fill="white" fill-opacity="0.44"/>
<path d="M23.9327 10.8833C23.9327 11.4297 23.4774 11.8727 22.9158 11.8727C22.3543 11.8727 21.899 11.4297 21.899 10.8833C21.899 7.96684 19.8122 5.93633 16.8148 5.93633C16.2533 5.93633 15.798 5.49337 15.798 4.94694C15.798 4.40052 16.2533 3.95755 16.8148 3.95755C20.9353 3.95755 23.9327 6.87399 23.9327 10.8833Z" fill="white" fill-opacity="0.44"/>
<path fill-rule="evenodd" clip-rule="evenodd" d="M19.7782 15.0313C20.2144 16.6666 19.4855 17.8727 18.1608 18.6894C18.1608 18.6894 15.7766 20.3421 11.0101 21.5452C6.2436 22.7483 3.33436 22.4317 3.33436 22.4317C1.76869 22.3446 0.541715 21.6816 0.0933719 20C-0.243087 18.8043 0.392197 17.9339 1.00477 17.0947C1.65303 16.2066 2.27586 15.3533 1.69464 14.1862C0.0222972 10.0087 2.59656 5.27036 6.13765 4.37656L6.69081 4.23694C10.2319 3.34313 14.8488 6.26634 15.4744 10.7081C15.5496 12.0036 16.5105 12.4508 17.5164 12.9189C18.4658 13.3607 19.4554 13.8212 19.7782 15.0313ZM3.76061 16.31C4.05473 15.417 4.04733 14.4274 3.56674 13.4098C2.98395 11.9029 3.13985 10.2636 3.80209 8.8907C4.48684 7.4711 5.59631 6.55747 6.6483 6.29194L7.20146 6.15232C8.25345 5.88678 9.67946 6.16044 10.9871 7.07715C12.2517 7.96371 13.2069 9.32252 13.4505 10.915C13.5382 12.0255 14.0191 12.8926 14.7202 13.5356C15.3287 14.0936 16.0666 14.4374 16.5186 14.648L16.5529 14.6639C17.689 15.1937 17.7502 15.3052 17.8098 15.5284C17.9212 15.9461 17.8605 16.1782 17.7889 16.3266C17.7026 16.5053 17.5042 16.7517 17.0723 17.018L17.0258 17.0467L16.9875 17.0732L16.9847 17.0751C16.9768 17.0803 16.9599 17.0915 16.9338 17.1081C16.8818 17.1413 16.7933 17.1963 16.6686 17.269C16.419 17.4145 16.0241 17.631 15.484 17.8864C14.4042 18.397 12.7428 19.0635 10.4994 19.6298C8.25605 20.196 6.47119 20.3993 5.2724 20.4639C4.67283 20.4962 4.21963 20.4938 3.92883 20.4846C3.78344 20.4801 3.67869 20.4739 3.61658 20.4695C3.6127 20.4692 3.60899 20.4689 3.60544 20.4687C3.58061 20.4668 3.56397 20.4654 3.55569 20.4647L3.55231 20.4643L3.50557 20.4593L3.45054 20.4562C2.91601 20.4264 2.62671 20.3073 2.47425 20.2017C2.35501 20.1191 2.1822 19.9544 2.06188 19.5031L2.05845 19.4902L2.05484 19.4774C2.00139 19.2874 1.97805 19.1803 2.7172 18.1659L2.73941 18.1355C3.03079 17.7359 3.5053 17.0852 3.76061 16.31Z" fill="white"/>
<path d="M7.41026 4.10852C7.40673 4.09178 7.40273 4.07504 7.39827 4.05831C7.25726 3.52939 6.70228 3.21184 6.15869 3.34905C5.61511 3.48626 5.28875 4.02626 5.42976 4.55517C5.43423 4.57192 5.43911 4.58845 5.44439 4.60476C5.67052 4.51252 5.9019 4.436 6.13757 4.37652L6.69072 4.2369C6.9263 4.17744 7.16665 4.13487 7.41026 4.10852Z" fill="white" fill-opacity="0.44"/>
<path d="M7.79987 23.5818C7.4496 24.0089 7.52151 24.6315 7.96047 24.9723C10.4774 26.9264 14.2175 25.9824 15.4408 23.0842C15.6542 22.5787 15.406 22.0007 14.8865 21.7931C14.367 21.5855 13.773 21.827 13.5596 22.3324C12.8514 24.0103 10.686 24.5569 9.22889 23.4256C8.78993 23.0847 8.15013 23.1547 7.79987 23.5818Z" fill="white" fill-opacity="0.44"/>
</svg>
