<svg width="30" height="31" viewBox="0 0 30 31" fill="none" xmlns="http://www.w3.org/2000/svg">
<path d="M1 24.2239C1 25.4704 1.16077 26.3363 1.49283 26.9712C1.80685 27.5717 2.32545 28.0628 3.25894 28.4595C4.22196 28.8688 5.59151 29.1613 7.53907 29.3452C9.47687 29.5283 11.9211 29.5986 15 29.5986C18.0789 29.5986 20.5231 29.5283 22.4609 29.3452C24.4085 29.1613 25.778 28.8688 26.7411 28.4595C27.6745 28.0628 28.1931 27.5717 28.5072 26.9712C28.8392 26.3363 29 25.4704 29 24.2239C29 22.9774 28.8392 22.1116 28.5072 21.4766C28.1931 20.8761 27.6745 20.385 26.7411 19.9883C25.778 19.5791 24.4085 19.2866 22.4609 19.1026C20.5231 18.9196 18.0789 18.8492 15 18.8492C11.9211 18.8492 9.47687 18.9196 7.53907 19.1026C5.59151 19.2866 4.22196 19.5791 3.25894 19.9883C2.32545 20.385 1.80685 20.8761 1.49283 21.4766C1.16077 22.1116 1 22.9774 1 24.2239Z" stroke="#FF5023" stroke-width="2" stroke-linecap="round" stroke-linejoin="round"/>
<path d="M7.81825 7.64965C7.81825 11.2599 10.9692 14.2993 15.0001 14.2993C19.0309 14.2993 22.1819 11.2599 22.1819 7.64965C22.1819 4.03943 19.0309 1 15.0001 1C10.9692 1 7.81825 4.03943 7.81825 7.64965Z" stroke="#FF5023" stroke-width="2"/>
</svg>
