<svg width="22" height="22" viewBox="0 0 22 22" fill="none" xmlns="http://www.w3.org/2000/svg">
<path d="M1 17.4167C1 18.2944 1.11427 18.8638 1.32234 19.2617C1.51238 19.6251 1.82951 19.9384 2.45305 20.2034C3.10612 20.4809 4.05724 20.6878 5.44692 20.8191C6.82684 20.9494 8.57372 21 10.7848 21C12.9959 21 14.7428 20.9494 16.1227 20.8191C17.5124 20.6878 18.4635 20.4809 19.1166 20.2034C19.7401 19.9384 20.0572 19.6251 20.2473 19.2617C20.4553 18.8638 20.5696 18.2944 20.5696 17.4167C20.5696 16.539 20.4553 15.9695 20.2473 15.5716C20.0572 15.2082 19.7401 14.8949 19.1166 14.6299C18.4635 14.3524 17.5124 14.1455 16.1227 14.0143C14.7428 13.8839 12.9959 13.8333 10.7848 13.8333C8.57372 13.8333 6.82684 13.8839 5.44692 14.0143C4.05724 14.1455 3.10612 14.3524 2.45305 14.6299C1.82951 14.8949 1.51238 15.2082 1.32234 15.5716C1.11427 15.9695 1 16.539 1 17.4167Z" stroke="black" stroke-width="2" stroke-linecap="round" stroke-linejoin="round"/>
<path d="M5.90224 5.5C5.90224 7.923 8.02385 10 10.7849 10C13.5459 10 15.6675 7.923 15.6675 5.5C15.6675 3.077 13.5459 1 10.7849 1C8.02385 1 5.90224 3.077 5.90224 5.5Z" stroke="black" stroke-width="2"/>
</svg>
