<svg width="20" height="22" viewBox="0 0 20 22" fill="none" xmlns="http://www.w3.org/2000/svg">
<path d="M1 17.4167C1 18.3009 1.10692 18.8819 1.30425 19.2888C1.48308 19.6576 1.77306 19.9601 2.32853 20.2147C2.91701 20.4844 3.78275 20.6892 5.0647 20.8198C6.33709 20.9494 7.95123 21 10 21C12.0488 21 13.6629 20.9494 14.9353 20.8198C16.2173 20.6892 17.083 20.4844 17.6715 20.2147C18.2269 19.9601 18.5169 19.6576 18.6957 19.2888C18.8931 18.8819 19 18.3009 19 17.4167C19 16.5324 18.8931 15.9515 18.6957 15.5445C18.5169 15.1757 18.2269 14.8733 17.6715 14.6187C17.083 14.349 16.2173 14.1441 14.9353 14.0136C13.6629 13.884 12.0488 13.8333 10 13.8333C7.95123 13.8333 6.33709 13.884 5.0647 14.0136C3.78275 14.1441 2.91701 14.349 2.32853 14.6187C1.77306 14.8733 1.48308 15.1757 1.30425 15.5445C1.10692 15.9515 1 16.5324 1 17.4167Z" stroke="white" stroke-width="2" stroke-linecap="round" stroke-linejoin="round"/>
<path d="M5.54545 5.5C5.54545 7.99312 7.54763 10 10 10C12.4524 10 14.4545 7.99312 14.4545 5.5C14.4545 3.00688 12.4524 1 10 1C7.54763 1 5.54545 3.00688 5.54545 5.5Z" stroke="white" stroke-width="2"/>
</svg>
