<svg width="42" height="42" viewBox="0 0 42 42" fill="none" xmlns="http://www.w3.org/2000/svg">
<path fill-rule="evenodd" clip-rule="evenodd" d="M39.3205 12.8877C40.39 7.31112 35.4941 2.41528 29.9176 3.48478L13.9068 6.5554C10.4263 7.2229 7.64285 9.85744 6.75853 13.2807C4.99294 20.1155 11.3315 26.362 18.1374 24.3606C18.3254 24.3053 18.5 24.4799 18.4447 24.6679C16.4433 31.4738 22.6898 37.8124 29.5246 36.0468C32.9479 35.1625 35.5824 32.379 36.2499 28.8985L39.3205 12.8877ZM30.412 6.06279C34.1664 5.34276 37.4625 8.63886 36.7425 12.3932L33.6719 28.4041C33.197 30.8802 31.3171 32.8726 28.868 33.5052C23.9731 34.7697 19.5466 30.2252 20.9631 25.4084C21.6045 23.2273 19.578 21.2008 17.3968 21.8422C12.5801 23.2587 8.03561 18.8322 9.3001 13.9373C9.93273 11.4883 11.9251 9.60829 14.4012 9.13342L30.412 6.06279Z" fill="white"/>
<path d="M8.65294 28.5839C9.16551 28.0714 9.16551 27.2403 8.65294 26.7278C8.14038 26.2152 7.30935 26.2152 6.79679 26.7278L4.32191 29.2026C3.80935 29.7152 3.80935 30.5462 4.32191 31.0588C4.83448 31.5714 5.66551 31.5714 6.17807 31.0588L8.65294 28.5839Z" fill="white"/>
<path d="M14.8401 29.8214C15.3527 29.3088 15.3527 28.4778 14.8401 27.9652C14.3276 27.4526 13.4965 27.4526 12.984 27.9652L10.5091 30.4401C9.99654 30.9526 9.99654 31.7837 10.5091 32.2962C11.0217 32.8088 11.8527 32.8088 12.3653 32.2962L14.8401 29.8214Z" fill="white"/>
<path d="M16.0776 36.0085C16.5901 35.496 16.5901 34.665 16.0776 34.1524C15.565 33.6398 14.734 33.6398 14.2214 34.1524L11.7465 36.6273C11.234 37.1398 11.234 37.9709 11.7465 38.4834C12.2591 38.996 13.0901 38.996 13.6027 38.4834L16.0776 36.0085Z" fill="white"/>
</svg>
