<svg width="30" height="30" viewBox="0 0 30 30" fill="none" xmlns="http://www.w3.org/2000/svg">
<path d="M21.25 6.875C20.9375 3.54168 18.75 1.25 15 1.25C11.25 1.25 9.0625 3.54168 8.75 6.875" stroke="#FF5023" stroke-width="1.7037" stroke-linecap="round" stroke-linejoin="round"/>
<path d="M5.56309 8.068C3.72483 8.68401 2.60553 9.62771 1.9077 11.0772C2.0895 11.2659 2.33615 11.5149 2.64076 11.8061C3.35558 12.4894 4.38474 13.4006 5.63967 14.3103C8.17257 16.1465 11.517 17.8981 15 17.8981C18.483 17.8981 21.8274 16.1465 24.3603 14.3103C25.6153 13.4006 26.6444 12.4894 27.3592 11.8061C27.6639 11.5149 27.9105 11.2659 28.0923 11.0772C27.3945 9.62771 26.2752 8.68401 24.4369 8.068C22.3315 7.36245 19.3193 7.10185 15 7.10185C10.6807 7.10185 7.66854 7.36245 5.56309 8.068ZM1.46349 13.0376C1.40664 12.9833 1.35164 12.9303 1.29852 12.8787C0.983668 14.2524 0.851852 15.9687 0.851852 18.125C0.851852 23.017 1.53688 25.5895 3.39656 27.0618C4.34639 27.8137 5.6816 28.3445 7.59265 28.6807C9.50415 29.0171 11.9269 29.1481 15 29.1481C18.0731 29.1481 20.4959 29.0171 22.4074 28.6807C24.3184 28.3445 25.6536 27.8137 26.6034 27.0618C28.4631 25.5895 29.1481 23.017 29.1481 18.125C29.1481 15.9687 29.0163 14.2524 28.7015 12.8787C28.6484 12.9303 28.5934 12.9833 28.5365 13.0376C27.7803 13.7606 26.6918 14.7244 25.3603 15.6897C22.7204 17.6035 19.017 19.6019 15 19.6019C10.983 19.6019 7.27962 17.6035 4.6397 15.6897C3.30822 14.7244 2.21972 13.7606 1.46349 13.0376Z" stroke="#FF5023" stroke-width="1.7037" stroke-linecap="round" stroke-linejoin="round"/>
</svg>
