<svg width="22" height="22" viewBox="0 0 22 22" fill="none" xmlns="http://www.w3.org/2000/svg">
<path d="M15.4431 5.53705C15.2301 3.26545 13.7394 1.70372 11.1838 1.70372C8.62826 1.70372 7.13752 3.26546 6.92456 5.53705" stroke="#212135" stroke-width="1.7037" stroke-linecap="round" stroke-linejoin="round"/>
<path d="M1.81346 13.2037C1.81346 16.5383 2.28767 18.1652 3.44472 19.0812C4.04323 19.555 4.90418 19.9051 6.18287 20.13C7.46203 20.3551 9.09439 20.4445 11.1838 20.4445C13.2733 20.4445 14.9056 20.3551 16.1848 20.13C17.4635 19.9051 18.3244 19.555 18.9229 19.0812C20.08 18.1652 20.5542 16.5383 20.5542 13.2037C20.5542 11.2284 20.3901 9.83389 19.9966 8.82919C19.5679 7.73487 18.8478 7.04935 17.5287 6.60733C16.1394 6.14176 14.1257 5.96298 11.1838 5.96298C8.24195 5.96298 6.22828 6.14176 4.83896 6.60733C3.5199 7.04935 2.79971 7.73487 2.37111 8.82919C1.9776 9.83389 1.81346 11.2284 1.81346 13.2037Z" stroke="#212135" stroke-width="1.7037" stroke-linecap="round" stroke-linejoin="round"/>
</svg>
