<svg width="21" height="21" viewBox="0 0 21 21" fill="none" xmlns="http://www.w3.org/2000/svg">
<path d="M14.4814 4.68518C14.2684 2.41358 12.7777 0.851847 10.2221 0.851847C7.66659 0.851847 6.17585 2.41359 5.96289 4.68518" stroke="#212135" stroke-width="1.7037" stroke-linecap="round" stroke-linejoin="round"/>
<path d="M0.851852 12.3519C0.851852 15.6864 1.32606 17.3134 2.48311 18.2294C3.08162 18.7032 3.94257 19.0532 5.22126 19.2782C6.50042 19.5032 8.13278 19.5926 10.2222 19.5926C12.3117 19.5926 13.944 19.5032 15.2232 19.2782C16.5019 19.0532 17.3628 18.7032 17.9613 18.2294C19.1184 17.3134 19.5926 15.6864 19.5926 12.3519C19.5926 10.3765 19.4284 8.98203 19.0349 7.97734C18.6063 6.88302 17.8861 6.1975 16.5671 5.75548C15.1778 5.28991 13.1641 5.11112 10.2222 5.11112C7.28034 5.11112 5.26667 5.28991 3.87735 5.75548C2.5583 6.1975 1.8381 6.88302 1.4095 7.97734C1.016 8.98203 0.851852 10.3765 0.851852 12.3519Z" stroke="#212135" stroke-width="1.7037" stroke-linecap="round" stroke-linejoin="round"/>
</svg>
