<svg width="23" height="23" viewBox="0 0 23 23" fill="none" xmlns="http://www.w3.org/2000/svg">
<path d="M21.7295 6.64617C21.6783 6.52261 21.5917 6.41698 21.4805 6.34266C21.3693 6.26834 21.2386 6.22865 21.1048 6.22863H18.5328C18.1732 5.61682 17.6614 5.10848 17.0471 4.75301C16.4329 4.39754 15.7372 4.20705 15.0276 4.20005C14.4989 4.19311 13.9741 4.29199 13.4842 4.49085C12.9943 4.68972 12.5491 4.98456 12.1749 5.35803C11.7897 5.73604 11.4839 6.18725 11.2756 6.68513C11.0673 7.18301 10.9607 7.71751 10.9619 8.2572V8.77195C7.55901 7.87431 4.77563 5.10615 4.74605 5.07656C4.65533 4.98504 4.54035 4.92135 4.41464 4.89298C4.28894 4.86462 4.15775 4.87276 4.03652 4.91646C3.91529 4.96015 3.80907 5.03758 3.73037 5.13962C3.65167 5.24166 3.60376 5.36407 3.59229 5.49242C3.228 9.53183 4.40119 12.2349 5.45182 13.791C5.9641 14.5602 6.58731 15.2495 7.30121 15.8365C6.01391 17.3182 3.98702 18.0966 3.96505 18.1051C3.86963 18.1408 3.78352 18.1977 3.71316 18.2714C3.6428 18.3451 3.59 18.4337 3.5587 18.5307C3.52741 18.6276 3.51844 18.7304 3.53245 18.8313C3.54646 18.9323 3.5831 19.0287 3.63963 19.1135C3.70302 19.2081 3.95659 19.5403 4.57615 19.8505C5.34194 20.2343 6.35369 20.4287 7.58098 20.4287C13.5543 20.4287 18.5454 15.8289 19.0551 9.91049L21.5832 7.38322C21.6778 7.28861 21.7421 7.16808 21.7682 7.03688C21.7942 6.90568 21.7807 6.76972 21.7295 6.64617ZM17.9259 9.13203C17.81 9.24824 17.7403 9.40266 17.7298 9.56648C17.3858 14.8991 12.9297 19.0763 7.58098 19.0763C6.68841 19.0763 6.05955 18.9579 5.61834 18.8159C6.59121 18.2877 7.94782 17.379 8.82011 16.0706C8.8713 15.9937 8.90619 15.9071 8.9226 15.8161C8.93901 15.7252 8.93661 15.6318 8.91554 15.5418C8.89447 15.4519 8.85519 15.3672 8.8001 15.2929C8.74502 15.2187 8.6753 15.1566 8.59527 15.1104C8.55555 15.0876 4.88382 12.884 4.87621 6.9961C6.2286 8.09492 8.70093 9.79977 11.5257 10.2748C11.6225 10.2911 11.7217 10.2862 11.8164 10.2603C11.9111 10.2344 11.9991 10.1882 12.0741 10.1249C12.1492 10.0616 12.2095 9.98269 12.251 9.8937C12.2925 9.80472 12.3141 9.70777 12.3143 9.60959V8.2572C12.3136 7.8965 12.385 7.53928 12.5243 7.20658C12.6637 6.87387 12.8682 6.57241 13.1258 6.31991C13.3727 6.07251 13.6667 5.87712 13.9905 5.7453C14.3142 5.61348 14.6611 5.5479 15.0106 5.55243C16.0807 5.56596 17.0806 6.21848 17.499 7.17614C17.5518 7.29654 17.6385 7.39896 17.7485 7.47087C17.8585 7.54277 17.9872 7.58105 18.1186 7.58101H19.471L17.9259 9.13203Z" fill="#459AF8"/>
</svg>
