<svg width="36" height="36" viewBox="0 0 36 36" fill="none" xmlns="http://www.w3.org/2000/svg">
<path d="M23.4546 18.1705C22.8332 18.1705 22.3296 18.6742 22.3296 19.2955C22.3296 19.9168 22.8332 20.4205 23.4546 20.4205H27.5455C28.1668 20.4205 28.6705 19.9168 28.6705 19.2955C28.6705 18.6742 28.1668 18.1705 27.5455 18.1705H23.4546Z" fill="white"/>
<path fill-rule="evenodd" clip-rule="evenodd" d="M29.4712 5.06621C29.5873 5.73215 29.6154 6.52353 29.6233 7.42896C29.7534 7.49684 29.8811 7.56909 30.0066 7.64599C31.1671 8.35717 32.1429 9.33292 32.854 10.4935C33.6371 11.7712 33.9218 13.2521 34.0394 15.1344C34.125 16.5037 34.125 18.1692 34.125 20.2148V20.2572C34.125 21.4302 34.125 22.4751 34.1096 23.4051C34.0616 26.2969 33.8743 28.3416 32.854 30.0066C32.1429 31.1671 31.1671 32.1428 30.0066 32.854C28.8983 33.5332 27.6412 33.8358 26.1059 33.9818C24.5996 34.125 22.7142 34.125 20.3092 34.125H15.691C13.2859 34.125 11.4004 34.125 9.89418 33.9818C8.35886 33.8358 7.1017 33.5332 5.99347 32.854C4.83293 32.1428 3.85718 31.1671 3.146 30.0066C2.46687 28.8983 2.1642 27.6412 2.01822 26.1058C1.875 24.5996 1.87501 22.7141 1.87502 20.309L1.87514 19.5205C1.85537 18.7792 1.86144 17.9505 1.86799 17.057C1.87144 16.5861 1.87502 16.0971 1.87502 15.5935L1.87502 15.5284C1.87501 12.9601 1.875 10.9443 2.04126 9.34452C2.21083 7.71282 2.56345 6.38193 3.35871 5.24079C3.83919 4.55133 4.42211 3.94309 5.08708 3.43941C6.19455 2.60056 7.49052 2.22765 9.07094 2.04914C10.6128 1.87498 12.5526 1.87499 15.0097 1.87501L23.2118 1.875C24.4096 1.87495 25.4249 1.87491 26.2343 1.98836C27.0989 2.10953 27.8923 2.3791 28.5271 3.04092C29.0781 3.61539 29.3391 4.30842 29.4712 5.06621ZM23.1327 4.12501C24.4312 4.12501 25.2872 4.1276 25.922 4.21658C26.5195 4.30032 26.7519 4.44059 26.9033 4.59844C27.0433 4.74443 27.1696 4.96483 27.2547 5.45259C27.3115 5.77873 27.3425 6.17735 27.359 6.68729C26.7398 6.57397 26.0717 6.50414 25.3439 6.45923C23.9788 6.375 22.32 6.375 20.2848 6.37501H15.691C13.2859 6.375 11.4005 6.37499 9.89418 6.51821C8.35886 6.66419 7.1017 6.96686 5.99347 7.64599C5.39605 8.01209 4.8476 8.4483 4.35899 8.94374C4.52363 7.85274 4.79326 7.11757 5.20467 6.52723C5.55204 6.02878 5.97115 5.59236 6.44562 5.23298C7.10221 4.73564 7.94648 4.44046 9.32348 4.28492C10.7244 4.12668 12.5371 4.12501 15.0796 4.12501H23.1327ZM7.16909 9.56443C7.86438 9.13835 8.73652 8.88843 10.1072 8.75811C11.4945 8.62619 13.2732 8.62501 15.75 8.62501H20.25C22.327 8.62501 23.9174 8.62549 25.2053 8.70496C26.492 8.78435 27.3915 8.93913 28.1006 9.20843C28.3662 9.30929 28.6065 9.42691 28.831 9.56443C29.6887 10.0901 30.4099 10.8113 30.9356 11.6691C31.3055 12.2727 31.5412 13.0065 31.6825 14.0796H23.4546C20.5739 14.0796 18.2387 16.4148 18.2387 19.2955C18.2387 22.1762 20.5739 24.5114 23.4546 24.5114H31.829C31.7424 26.7019 31.5033 27.9045 30.9356 28.8309C30.4099 29.6887 29.6887 30.4099 28.831 30.9356C28.1357 31.3617 27.2635 31.6116 25.8929 31.7419C24.5055 31.8738 22.7269 31.875 20.25 31.875H15.75C13.2732 31.875 11.4945 31.8738 10.1072 31.7419C8.73652 31.6116 7.86438 31.3617 7.16909 30.9356C6.3113 30.4099 5.5901 29.6887 5.06444 28.8309C4.63837 28.1356 4.38844 27.2635 4.25812 25.8929C4.12621 24.5055 4.12502 22.7269 4.12502 20.25C4.12502 17.7732 4.12621 15.9945 4.25812 14.6071C4.38844 13.2365 4.63837 12.3644 5.06444 11.6691C5.5901 10.8113 6.3113 10.0901 7.16909 9.56443ZM20.4887 19.2955C20.4887 17.6575 21.8165 16.3296 23.4546 16.3296H31.8414C31.8747 17.4155 31.875 18.6966 31.875 20.25C31.875 20.9759 31.875 21.6435 31.8715 22.2614H23.4546C21.8165 22.2614 20.4887 20.9335 20.4887 19.2955Z" fill="white"/>
</svg>
