<svg width="18" height="17" viewBox="0 0 18 17" fill="none" xmlns="http://www.w3.org/2000/svg">
<path d="M14.7402 2.73778C13.9772 1.96706 13.0683 1.35599 12.0667 0.940188C11.0651 0.524388 9.99067 0.312189 8.90617 0.315968C4.36216 0.315968 0.658704 4.01942 0.658704 8.56343C0.658704 10.0198 1.04153 11.4347 1.75726 12.683L0.592125 16.9607L4.96137 15.8122C6.16811 16.4697 7.52466 16.8192 8.90617 16.8192C13.4502 16.8192 17.1536 13.1158 17.1536 8.57176C17.1536 6.36633 16.2964 4.29406 14.7402 2.73778ZM8.90617 15.4211C7.67446 15.4211 6.46772 15.0882 5.41078 14.464L5.16111 14.3142L2.56453 14.9966L3.25528 12.4666L3.08884 12.2086C2.40453 11.1159 2.04117 9.85277 2.04022 8.56343C2.04022 4.78508 5.11949 1.7058 8.89785 1.7058C10.7288 1.7058 12.4515 2.42153 13.7415 3.71982C14.3802 4.35562 14.8864 5.11187 15.2307 5.94474C15.575 6.77761 15.7505 7.67054 15.7472 8.57176C15.7638 12.3501 12.6845 15.4211 8.90617 15.4211ZM12.6679 10.2945C12.4598 10.1946 11.4445 9.69528 11.2614 9.62038C11.07 9.5538 10.9368 9.52051 10.7953 9.72024C10.6539 9.9283 10.2627 10.3944 10.1462 10.5275C10.0297 10.669 9.90485 10.6856 9.6968 10.5774C9.48874 10.4776 8.82295 10.2529 8.04064 9.5538C7.42479 9.00452 7.01699 8.33041 6.89216 8.12235C6.77564 7.91429 6.87551 7.8061 6.9837 7.69791C7.07525 7.60636 7.19176 7.45656 7.29163 7.34005C7.3915 7.22353 7.43311 7.13199 7.49969 6.99883C7.56627 6.85735 7.53298 6.74084 7.48305 6.64097C7.43311 6.5411 7.01699 5.52577 6.85055 5.10965C6.6841 4.71018 6.50933 4.76011 6.38449 4.75179H5.98502C5.84354 4.75179 5.62716 4.80172 5.43574 5.00978C5.25265 5.21784 4.72002 5.71719 4.72002 6.73251C4.72002 7.74784 5.46071 8.72988 5.56058 8.86304C5.66045 9.00452 7.01699 11.0851 9.08094 11.9756C9.57196 12.192 9.95479 12.3168 10.2544 12.4084C10.7454 12.5665 11.1948 12.5415 11.5527 12.4916C11.9522 12.4333 12.7761 11.9923 12.9425 11.5096C13.1173 11.0269 13.1173 10.6191 13.059 10.5275C13.0008 10.436 12.8759 10.3944 12.6679 10.2945Z" fill="#19AE19"/>
</svg>
